<?xml version="1.0" encoding="UTF-8"?> <svg xmlns="http://www.w3.org/2000/svg" width="100" height="101" viewBox="0 0 100 101" fill="none"><path d="M38.7218 54.4089C39.8595 54.4089 40.8055 53.3994 40.8055 52.1335C40.8055 50.8676 39.8595 49.8581 38.7218 49.8581C37.5841 49.8581 36.6542 50.8676 36.6542 52.1335C36.6542 53.3994 37.6003 54.4089 38.7218 54.4089ZM36.8945 56.2201C37.2306 56.8935 37.904 57.3578 38.6732 57.3578C39.7948 57.3578 40.6923 56.3806 40.6923 55.1782V55.0973L40.6611 55.0811C40.0363 55.706 39.2346 56.0906 38.3372 56.0906C36.4152 56.0906 34.8605 54.3118 34.8605 52.1322C34.8605 49.9527 36.4152 48.1739 38.3372 48.1739C39.2346 48.1739 40.0363 48.5585 40.6611 49.1996L40.6923 49.1834V48.3818H42.4872V55.1757C42.4872 57.3229 40.9014 59.0532 38.7542 59.0532C37.3127 59.0532 36.0617 58.2839 35.3895 57.1138L36.8957 56.2163V56.2201H36.8945ZM48.96 51.0929L48.9762 51.0605C48.5754 50.3236 47.8708 49.8269 47.0543 49.8269C46.2377 49.8269 45.5481 50.2912 45.1149 51.0605L45.1311 51.0929H48.9612H48.96ZM48.7521 53.672L50.0019 54.9056C49.2812 55.6425 48.2716 56.0919 47.1663 56.0919C44.9543 56.0919 43.1917 54.3293 43.1917 52.1347C43.1917 49.9402 44.907 48.1764 47.0543 48.1764C49.2015 48.1764 50.8993 49.939 50.8993 52.1347C50.8993 52.487 50.8682 52.5829 50.8682 52.5829H44.9879C44.9879 53.4168 45.9651 54.394 47.0866 54.394C47.7439 54.394 48.3202 54.1052 48.7534 53.6733M53.4486 52.1335V55.8827H51.6537V48.3843H53.4486V49.2979L53.481 49.3141C54.0897 48.561 54.9075 48.1764 55.7564 48.1764C58.9605 48.1764 59.0414 51.0929 59.0414 51.9903V55.884H57.2464V52.1347C57.2464 51.2373 57.2302 49.8593 55.3718 49.8593C54.3137 49.8593 53.4486 50.8688 53.4486 52.1347M63.6844 49.8581C62.5305 49.8581 61.6006 50.8676 61.6006 52.1173C61.6006 53.3671 62.5305 54.3927 63.6844 54.3927C64.8383 54.3927 65.7519 53.3832 65.7519 52.1173C65.7519 50.8514 64.8059 49.8581 63.6844 49.8581ZM64.069 56.0919C63.1553 56.0919 62.3699 55.7234 61.7301 55.0662L61.6977 55.0823V58.8478H59.9028V48.3843H61.6977V49.1697L61.7301 49.1859C62.3711 48.561 63.1566 48.1764 64.069 48.1764C65.9922 48.1764 67.5469 49.939 67.5469 52.1335C67.5469 54.328 65.9922 56.0919 64.069 56.0919ZM72.0168 54.3927C73.1546 54.3927 74.0844 53.3994 74.0844 52.1335C74.0844 50.8676 73.1546 49.8581 72.0168 49.8581C70.8791 49.8581 69.9505 50.8676 69.9505 52.1335C69.9505 53.3994 70.8953 54.3927 72.0168 54.3927ZM71.6322 48.1764C72.5297 48.1764 73.3313 48.561 73.9562 49.2021L73.9885 49.1859V48.3843H75.7835V55.884H73.9885V55.1147L73.9562 55.0823C73.3313 55.7072 72.5297 56.0919 71.6322 56.0919C69.7103 56.0919 68.1543 54.3293 68.1543 52.1347C68.1543 49.9402 69.709 48.1764 71.6322 48.1764ZM83.2807 54.9056C82.56 55.6425 81.5505 56.0919 80.4439 56.0919C78.232 56.0919 76.4694 54.3293 76.4694 52.1347C76.4694 49.9402 78.232 48.1764 80.4439 48.1764C81.5505 48.1764 82.5588 48.6245 83.2807 49.3626L82.0148 50.5489C81.614 50.117 81.0688 49.8593 80.4452 49.8593C79.2278 49.8593 78.2656 50.885 78.2656 52.1347C78.2656 53.3845 79.2265 54.394 80.4452 54.394C81.07 54.394 81.6464 54.1226 82.0472 53.6895L83.2807 54.9068V54.9056ZM86.8893 50.1157V55.884H85.0944V50.1157H83.8496V48.3843H85.0944V45.0196H86.8893V48.3843H88.1341V50.1157H86.8893ZM19.7602 52.3675L23.6427 49.6726L27.2338 52.1385L23.3028 54.811L19.7602 52.3675ZM19.1291 63.3513V57.7026L15.421 55.1197V49.7522L11.363 46.9515V57.9416L19.1291 63.3513ZM11.6282 46.6129L15.5666 49.3315L19.4839 46.6017L23.6364 49.456L27.3944 46.6553L19.4839 41.1559L11.6282 46.6129ZM27.4641 52.5019L19.5586 57.8768V63.3314L27.4641 57.9565V52.5019ZM19.5586 52.7484V57.3565L22.922 55.0699L19.5586 52.7484Z" fill="white" style="fill:white;fill-opacity:1;"></path></svg> 